<!-- https://www.iconfont.cn/search/index?searchType=icon&q=%E6%94%AF%E4%BB%98%E5%AE%9D&page=4&fills=1&tag=simple -->
<svg class="icon" style="width: auto; height: 100%;vertical-align: middle;fill: currentColor;overflow: hidden;" viewBox="0 0 2876 1024" version="1.1" xmlns="http://www.w3.org/2000/svg" p-id="836">
    <path d="M813.007238 623.177143c141.653333 48.176762 175.640381 51.004952 175.640381 51.004952V164.327619c0-87.771429-70.851048-158.622476-158.622476-158.622476H158.622476A158.378667 158.378667 0 0 0 0 164.327619v668.525714c0 87.868952 70.802286 158.671238 158.622476 158.671238h671.402667c87.771429 0 158.622476-70.802286 158.622476-158.622476v-5.705143s-257.80419-107.617524-388.144762-169.935238c-87.771429 107.617524-198.265905 172.81219-317.244952 172.812191-116.102095 0-198.265905-68.022857-206.750476-138.825143 0 0-25.502476-73.630476 36.815238-147.260952 22.674286-25.551238 56.661333-48.225524 110.445714-62.366477 84.992-19.846095 218.160762 14.140952 342.79619 53.833143 22.674286-42.520381 42.471619-87.82019 56.661334-135.996952H235.032381v-39.643429h198.314667V288.963048H192.609524V252.099048h240.786286V152.966095s0-16.969143 17.017904-16.969143h96.304762V252.099048h237.958095v39.69219h-237.958095v70.802286h195.486476c-19.846095 76.507429-48.176762 147.260952-82.163809 206.750476 62.317714 19.894857 113.322667 39.69219 152.966095 53.881905" fill="#269DC0" p-id="837"></path>
    <path d="M988.647619 827.14819v5.705143c0 87.771429-70.851048 158.622476-158.671238 158.622477H158.622476A158.378667 158.378667 0 0 1 0 832.853333V164.327619C0 76.458667 70.802286 5.607619 158.622476 5.607619h671.353905c87.82019 0 158.671238 70.851048 158.671238 158.622476v662.869334z" fill="#2580FC" p-id="838"></path>
    <path d="M813.007238 623.177143c-39.643429-14.140952-93.476571-33.938286-152.966095-53.784381a701.781333 701.781333 0 0 0 82.163809-206.799238h-195.486476V291.791238h237.958095V252.099048h-237.958095V136.045714H453.241905c-17.017905 0-17.017905 16.969143-17.017905 16.969143V252.099048H192.609524v39.69219h240.786286v70.802286H235.129905v39.643428h388.096c-14.140952 48.176762-33.987048 93.476571-56.661334 135.996953-124.635429-42.520381-260.632381-73.630476-342.79619-53.833143-53.784381 11.312762-87.771429 33.987048-110.445714 59.489524-93.476571 113.322667-25.502476 286.134857 169.935238 286.134857 116.150857 0 229.473524-65.194667 317.293714-172.812191 130.29181 62.317714 388.096 169.935238 388.096 169.935238v-152.966095s-31.207619-2.82819-175.640381-50.95619M266.288762 762.002286c-152.966095 0-198.314667-121.807238-124.635429-186.953143 25.502476-22.674286 70.802286-33.987048 96.304762-36.815238 90.648381-8.484571 175.640381 25.502476 274.773334 73.630476-67.974095 93.476571-155.794286 150.186667-246.442667 150.186667" fill="#FEFEFE" p-id="839"></path>
    <path d="M2396.501333 158.622476h283.306667v56.661334h101.961143V150.186667c0-14.140952-11.312762-28.330667-25.502476-28.330667h-164.278857V67.974095h-104.838096V118.979048h-192.609524v99.132952h101.961143v-59.489524zM1784.685714 73.630476l-104.838095 246.491429h79.335619v291.742476h87.820191V223.817143h-31.158858l65.145905-150.137905H1784.685714z m1005.665524 524.092953l-31.207619-107.666286a19.114667 19.114667 0 0 0-16.969143-11.312762h-84.992l25.502476 82.163809h-99.132952V402.236952h195.437714v-36.815238h-195.437714V288.963048h195.437714v-39.692191h-484.400762v36.815238h195.486477v76.507429h-195.486477v36.815238h195.486477v158.671238h-195.486477v36.815238l495.762286 2.828191zM1988.608 263.460571h-76.507429l59.489524 184.124953h87.820191l-53.784381-172.812191c-2.876952-5.656381-11.361524-11.312762-17.017905-11.312762" fill="#3F3A3A" p-id="840"></path>
    <path d="M2195.407238 79.335619h-90.697143v93.476571h-223.768381v36.815239h223.817143v339.919238c0 8.533333-5.656381 14.140952-14.140952 14.140952h-45.348572v39.692191h116.150857a34.425905 34.425905 0 0 0 33.987048-33.987048V209.627429h36.815238v-36.815239h-36.815238V79.335619zM1518.34819 288.963048s-48.128 186.953143-371.078095 283.257904v45.348572s407.942095-76.507429 484.400762-368.298667l-110.445714 17.017905-2.876953 22.674286z" fill="#3F3A3A" p-id="841"></path>
    <path d="M1297.408 328.606476s79.335619 141.653333 368.249905 246.442667v45.348571s-328.606476-65.194667-458.849524-291.791238h90.599619z m317.293714-39.643428h-430.567619v-39.692191h447.536762l-16.969143 39.692191z m-461.775238-99.181715h507.12381V150.186667h-507.12381v39.643428z" fill="#3F3A3A" p-id="842"></path>
    <path d="M1368.259048 70.802286a18.285714 18.285714 0 0 0-17.066667 17.017904v186.953143h107.666286V70.802286H1368.259048z m-19.846096 798.866285l14.140953 45.348572h42.520381l-82.16381-223.817143h-31.207619l-82.115047 223.817143h42.52038l16.969143-45.348572h79.335619z m-42.520381-121.807238l31.207619 93.476572h-62.366476l31.207619-93.476572z m232.301715-56.661333v223.817143h135.996952v-31.207619h-96.353524v-192.609524h-39.643428z m283.306666 223.817143h39.643429v-223.817143h-39.692191v223.817143z m291.742477-223.817143h-87.771429v223.817143h42.422857v-87.868953h48.176762c42.520381 0 73.630476-28.281905 73.630476-67.974095-2.779429-39.643429-31.110095-67.974095-76.458666-67.974095m-2.828191 107.617524h-42.471619v-76.458667h45.348571c22.625524 0 36.766476 19.846095 36.766477 39.643429-2.82819 17.017905-14.140952 36.815238-39.643429 36.815238m314.465524 70.851047l14.140952 45.348572h42.471619l-82.115047-223.817143h-31.207619l-82.115048 223.817143h42.471619l17.017905-45.348572h79.335619z m-39.692191-121.807238l31.207619 93.476572h-62.366476l31.207619-93.476572z m402.285715-56.661333l-42.520381 93.476571-45.348572-93.476571h-42.422857l67.925334 130.29181v93.476571h39.69219v-93.476571l67.974095-130.29181h-45.348571z" fill="#3F3A3A" p-id="843"></path>
</svg>